<svg width="90" height="88" viewBox="0 0 90 88" fill="none" xmlns="http://www.w3.org/2000/svg">
<path d="M4.07056 3.95255H85.8311V84.0554H4.07056V3.95255ZM0.35498 87.797H89.5645V0.210938H0.35498V87.797ZM63.4662 42.43C65.3597 42.43 66.0385 42.43 66.2171 42.358C66.2171 42.0882 66.2886 41.9083 66.2886 41.7284C66.2886 39.7137 65.324 35.9721 61.4655 35.9721C57.8928 35.9721 56.3744 39.1201 55.9993 42.448H63.4662V42.43ZM55.9278 47.5567C55.9993 52.6115 58.3751 56.0113 64.0378 56.0113C66.235 56.0113 68.1285 55.7055 70.0935 54.86C70.3614 54.7521 70.5401 54.7881 70.5401 55.1299V59.8069C70.5401 60.1846 70.4329 60.3645 70.1649 60.5624C68.2 61.5338 65.7348 61.9835 62.6981 61.9835C52.8911 61.9835 49.2112 54.6801 49.2112 46.5673C49.2112 37.735 53.7485 30.5036 61.7334 30.5036C69.8434 30.5036 72.6658 37.3572 72.6658 42.9337C72.6658 44.7325 72.5586 46.1896 72.3621 46.9091C72.2907 47.2149 72.1835 47.3228 71.8798 47.3948C71.1295 47.5027 68.9502 47.6646 65.6812 47.6646H55.9457V47.5567H55.9278ZM35.9924 43.7431C34.9563 39.5878 32.4197 30.5396 31.4908 26.1504H31.4193C30.6333 30.5216 28.5969 37.9328 27.0785 43.7431H35.9924ZM25.5602 49.8053L22.6306 60.9941C22.5591 61.2999 22.4519 61.4079 22.0768 61.4079H16.5928C16.2176 61.4079 16.1462 61.2999 16.2176 60.8502L26.7749 23.6859C26.9535 23.0204 27.0785 22.4807 27.15 20.6099C27.15 20.3401 27.2572 20.2322 27.4537 20.2322H35.26C35.5279 20.2322 35.6351 20.3041 35.7065 20.6099L47.5142 60.9222C47.5857 61.228 47.5142 61.4079 47.2105 61.4079H41.0834C40.7797 61.4079 40.6011 61.2999 40.5296 61.0301L37.475 49.8053H25.5602Z" fill="#D8A1FF"/>
</svg>
