<svg width="90" height="88" viewBox="0 0 90 88" fill="none" xmlns="http://www.w3.org/2000/svg">
<path d="M4.00341 3.95255H85.7639V84.0554H4.00341V3.95255ZM0.287842 87.797H89.4973V0.210938H0.287842V87.797ZM58.7188 31.439C58.7188 31.1332 58.826 30.9893 59.1654 30.9893H65.0067C65.3104 30.9893 65.4533 31.0972 65.4533 31.439V60.9761C65.4533 61.2819 65.3818 61.4258 65.0067 61.4258H59.2368C58.8617 61.4258 58.7545 61.246 58.7545 60.9402V31.439H58.7188ZM58.3079 22.9304C58.3079 20.538 59.9871 19.1169 62.095 19.1169C64.3636 19.1169 65.882 20.6459 65.882 22.9304C65.882 25.3949 64.2922 26.744 62.0235 26.744C59.8799 26.762 58.3079 25.4128 58.3079 22.9304ZM41.5879 43.7431C40.5518 39.5878 38.0866 30.5396 37.1578 26.1504H37.0863C36.3003 30.5216 34.3353 37.9328 32.7812 43.7431H41.5879ZM31.2629 49.8053L28.3333 61.0301C28.2618 61.3359 28.1546 61.4079 27.7795 61.4079H22.3133C21.9382 61.4079 21.8667 61.2999 21.9382 60.8502L32.4954 23.65C32.6741 22.9844 32.7991 22.3728 32.8706 20.538C32.8706 20.2681 32.9777 20.1602 33.1742 20.1602H40.9805C41.2485 20.1602 41.3556 20.2321 41.4271 20.538L53.2526 60.9222C53.3241 61.228 53.2526 61.4079 52.9489 61.4079H46.7861C46.4824 61.4079 46.3038 61.3359 46.2323 61.0661L43.1777 49.8053H31.2629Z" fill="#FF7F18"/>
</svg>
