<svg width="59" height="89" viewBox="0 0 59 89" fill="none" xmlns="http://www.w3.org/2000/svg">
<g clip-path="url(#clip0_167_597)">
<path d="M15.0513 88.2099C23.0898 88.2099 29.6099 81.6441 29.6099 73.5493V58.8887H15.0513C7.01279 58.8887 0.492676 65.4545 0.492676 73.5493C0.492676 81.6441 7.01279 88.2099 15.0513 88.2099Z" fill="#0ACF83"/>
<path d="M0.492676 44.2114C0.492676 36.1166 7.01279 29.5508 15.0513 29.5508H29.6099V58.89H15.0513C7.01279 58.872 0.492676 52.3062 0.492676 44.2114Z" fill="#A259FF"/>
<path d="M0.492676 14.8715C0.492676 6.77673 7.01279 0.210938 15.0513 0.210938H29.6099V29.5501H15.0513C7.01279 29.5501 0.492676 22.9664 0.492676 14.8715Z" fill="#F24E1E"/>
<path d="M29.6279 0.210938H44.1865C52.225 0.210938 58.7452 6.77673 58.7452 14.8715C58.7452 22.9664 52.225 29.5322 44.1865 29.5322H29.6279V0.210938Z" fill="#FF7262"/>
<path d="M58.7449 44.2114C58.7449 52.3062 52.2248 58.872 44.1863 58.872C36.1478 58.872 29.6277 52.3062 29.6277 44.2114C29.6277 36.1166 36.1478 29.5508 44.1863 29.5508C52.2248 29.5508 58.7449 36.1166 58.7449 44.2114Z" fill="#1ABCFE"/>
</g>
<defs>
<clipPath id="clip0_167_597">
<rect width="58.2523" height="87.9996" fill="white" transform="translate(0.492676 0.210938)"/>
</clipPath>
</defs>
</svg>
