<svg width="90" height="88" viewBox="0 0 90 88" fill="none" xmlns="http://www.w3.org/2000/svg">
<path d="M3.93408 3.93555H85.5995V83.8896H3.93408V3.93555Z" fill="url(#paint0_radial_167_561)"/>
<path d="M3.93406 3.9364H85.5994V83.8905H3.93406V3.9364ZM0.221191 87.6277H89.2944V0.199219H0.221191V87.6277ZM60.2876 36.0797C57.3602 36.0797 56.3605 37.571 56.3605 38.8108C56.3605 40.1583 57.021 41.0926 60.9659 43.1409C66.7851 45.9797 68.6059 48.7107 68.6059 52.6994C68.6059 58.6825 64.0719 61.8986 57.9492 61.8986C54.7183 61.8986 51.9337 61.2338 50.345 60.2996C50.0772 60.1917 50.0415 59.9941 50.0415 59.7066V54.1907C50.0415 53.8134 50.22 53.7056 50.4878 53.8853C52.8262 55.4125 55.5037 56.0952 57.9492 56.0952C60.8767 56.0952 62.1084 54.8555 62.1084 53.1845C62.1084 51.837 61.2515 50.6512 57.503 48.6927C52.2371 46.1594 50.0415 43.59 50.0415 39.2779C50.0415 34.4627 53.7901 30.456 60.2876 30.456C63.4828 30.456 65.7141 30.9411 66.9279 31.4981C67.2314 31.6778 67.3028 31.9832 67.3028 32.2527V37.3734C67.3028 37.6788 67.1243 37.8585 66.7495 37.7507C65.1072 36.7086 62.6974 36.0797 60.2876 36.0797ZM28.3712 40.5176C29.228 40.5895 29.8885 40.5895 31.3701 40.5895C35.7077 40.5895 39.7954 39.0623 39.7954 33.1152C39.7954 28.3718 36.868 25.9822 31.9234 25.9822C30.4418 25.9822 29.0317 26.054 28.3533 26.09L28.3712 40.5176ZM21.7487 20.6818C21.7487 20.4123 22.2664 20.2327 22.5698 20.2327C24.9439 20.1249 28.4783 20.053 32.1376 20.053C42.4194 20.053 46.4357 25.7306 46.4357 32.9714C46.4357 42.4581 39.5991 46.5367 31.2094 46.5367C29.7992 46.5367 29.3173 46.4648 28.3176 46.4648V60.8026C28.3176 61.1081 28.2105 61.2518 27.8714 61.2518H22.195C21.8915 61.2518 21.7487 61.144 21.7487 60.8026V20.6818Z" fill="#31C5F0"/>
<defs>
<radialGradient id="paint0_radial_167_561" cx="0" cy="0" r="1" gradientUnits="userSpaceOnUse" gradientTransform="translate(30.8385 21.8733) scale(62.0565 60.4753)">
<stop stop-color="#34364E" stop-opacity="0.98"/>
<stop offset="1" stop-color="#0C0824"/>
</radialGradient>
</defs>
</svg>
